<svg xmlns="http://www.w3.org/2000/svg" width="256" height="256" viewBox="0 0 256 256" role="img" aria-label="female avatar 12"><circle cx="128" cy="128" r="122" fill="#EDF8F4"/><circle cx="128" cy="128" r="118" fill="none" stroke="#FFFFFF" stroke-width="5" opacity="0.9"/><path d="M42 250c7-49 37-75 86-75s79 26 86 75" fill="#5A67D8"/><rect x="111" y="157" width="34" height="35" rx="14" fill="#E7B98A"/><circle cx="174" cy="57" r="27" fill="#4A3025"/><path d="M75 103c-1-49 21-74 56-74 39 0 59 31 57 83l-10 64c-14 9-31 13-51 13-21 0-39-5-54-15z" fill="#4A3025"/><ellipse cx="86.0" cy="129.0" rx="10" ry="16" fill="#E7B98A"/><ellipse cx="170.0" cy="129.0" rx="10" ry="16" fill="#E7B98A"/><rect x="84.0" y="68.0" width="88" height="112" rx="44.0" fill="#E7B98A"/><path d="M83 79c15-31 41-42 72-30 11 4 22 13 30 25-32-15-59-10-76 9z" fill="#4A3025"/><path d="M91 98 Q101 94 111 100" fill="none" stroke="#4A3025" stroke-width="5" stroke-linecap="round"/><path d="M145 100 Q155 94 165 98" fill="none" stroke="#4A3025" stroke-width="5" stroke-linecap="round"/><circle cx="101" cy="114" r="4" fill="#2F3B2F"/><circle cx="155" cy="114" r="4" fill="#2F3B2F"/><circle cx="99.6" cy="112.5" r="1.2" fill="#FFFFFF"/><circle cx="153.6" cy="112.5" r="1.2" fill="#FFFFFF"/><circle cx="101" cy="114" r="15" fill="none" stroke="#334155" stroke-width="3"/><circle cx="155" cy="114" r="15" fill="none" stroke="#334155" stroke-width="3"/><path d="M116 114h24" stroke="#334155" stroke-width="3"/><path d="M128 120q2 12 3 15" fill="none" stroke="#A86F58" stroke-width="3" stroke-linecap="round" opacity="0.75"/><path d="M111 153 Q128 163 145 153" fill="none" stroke="#A64B55" stroke-width="4" stroke-linecap="round"/><circle cx="103" cy="133" r="1.4" fill="#B7795D" opacity="0.65"/><circle cx="110" cy="132" r="1.4" fill="#B7795D" opacity="0.65"/><circle cx="146" cy="132" r="1.4" fill="#B7795D" opacity="0.65"/><circle cx="153" cy="133" r="1.4" fill="#B7795D" opacity="0.65"/><ellipse cx="96" cy="138" rx="10" ry="5" fill="#F08A8A" opacity="0.18"/><ellipse cx="160" cy="138" rx="10" ry="5" fill="#F08A8A" opacity="0.18"/><circle cx="128" cy="128" r="122" fill="none" stroke="#EF476F" stroke-width="8"/></svg>