<svg xmlns="http://www.w3.org/2000/svg" width="256" height="256" viewBox="0 0 256 256" role="img" aria-label="female avatar 50"><circle cx="128" cy="128" r="122" fill="#EEF2F7"/><circle cx="128" cy="128" r="118" fill="none" stroke="#FFFFFF" stroke-width="5" opacity="0.9"/><path d="M42 250c7-49 37-75 86-75s79 26 86 75" fill="#0F766E"/><rect x="111" y="157" width="34" height="35" rx="14" fill="#F7D7C4"/><path d="M75 91c2-41 25-62 55-62 35 0 58 24 58 70l-5 82c-18 8-33 9-55 9-25 0-42-3-57-12z" fill="#6B4634"/><ellipse cx="83.5" cy="130.0" rx="10" ry="16" fill="#F7D7C4"/><ellipse cx="172.5" cy="130.0" rx="10" ry="16" fill="#F7D7C4"/><rect x="81.5" y="69.0" width="93" height="109" rx="46.5" fill="#F7D7C4"/><path d="M82 80c17-33 42-45 70-35 11 4 22 13 31 27-28-10-52-5-72 13z" fill="#6B4634"/><path d="M128 46c-2 16-8 29-21 40" fill="none" stroke="#FFFFFF" stroke-width="3" opacity="0.15"/><path d="M90 99 Q100 94 110 99" fill="none" stroke="#6B4634" stroke-width="5" stroke-linecap="round"/><path d="M146 99 Q156 94 166 99" fill="none" stroke="#6B4634" stroke-width="5" stroke-linecap="round"/><circle cx="100" cy="114" r="5" fill="#1E293B"/><circle cx="156" cy="114" r="5" fill="#1E293B"/><circle cx="98.6" cy="112.5" r="1.2" fill="#FFFFFF"/><circle cx="154.6" cy="112.5" r="1.2" fill="#FFFFFF"/><path d="M128 120q2 13 3 16" fill="none" stroke="#A86F58" stroke-width="3" stroke-linecap="round" opacity="0.75"/><path d="M111 153 Q128 163 145 153" fill="none" stroke="#A64B55" stroke-width="4" stroke-linecap="round"/><ellipse cx="96" cy="138" rx="10" ry="5" fill="#F08A8A" opacity="0.18"/><ellipse cx="160" cy="138" rx="10" ry="5" fill="#F08A8A" opacity="0.18"/><circle cx="128" cy="128" r="122" fill="none" stroke="#EF476F" stroke-width="8"/></svg>