<svg xmlns="http://www.w3.org/2000/svg" width="256" height="256" viewBox="0 0 256 256" role="img" aria-label="female avatar 11"><circle cx="128" cy="128" r="122" fill="#FFF0F5"/><circle cx="128" cy="128" r="118" fill="none" stroke="#FFFFFF" stroke-width="5" opacity="0.9"/><path d="M42 250c7-49 37-75 86-75s79 26 86 75" fill="#DB2777"/><rect x="111" y="157" width="34" height="35" rx="14" fill="#9F6548"/><path d="M72 102c0-51 24-75 58-75 37 0 59 28 59 80l-12 82h-28l-4-58H93l-4 58H63z" fill="#4A3025"/><ellipse cx="81.5" cy="125.0" rx="10" ry="16" fill="#9F6548"/><ellipse cx="174.5" cy="125.0" rx="10" ry="16" fill="#9F6548"/><rect x="79.5" y="64.0" width="97" height="106" rx="48.5" fill="#9F6548"/><path d="M83 79c20-33 48-43 76-28 9 5 17 12 23 22-20-6-39-7-57 1-15 6-27 12-42 5z" fill="#4A3025"/><path d="M89 95 Q99 92 109 99" fill="none" stroke="#4A3025" stroke-width="5" stroke-linecap="round"/><path d="M147 99 Q157 92 167 95" fill="none" stroke="#4A3025" stroke-width="5" stroke-linecap="round"/><circle cx="99" cy="112" r="4" fill="#1E293B"/><circle cx="157" cy="112" r="4" fill="#1E293B"/><circle cx="97.6" cy="110.5" r="1.2" fill="#FFFFFF"/><circle cx="155.6" cy="110.5" r="1.2" fill="#FFFFFF"/><path d="M128 118q-2 13 3 16" fill="none" stroke="#A86F58" stroke-width="3" stroke-linecap="round" opacity="0.75"/><path d="M112 158 Q128 150 144 158" fill="none" stroke="#A64B55" stroke-width="4" stroke-linecap="round"/><ellipse cx="96" cy="136" rx="10" ry="5" fill="#F08A8A" opacity="0.18"/><ellipse cx="160" cy="136" rx="10" ry="5" fill="#F08A8A" opacity="0.18"/><circle cx="128" cy="128" r="122" fill="none" stroke="#EF476F" stroke-width="8"/></svg>