<svg xmlns="http://www.w3.org/2000/svg" width="256" height="256" viewBox="0 0 256 256" role="img" aria-label="female avatar 31"><circle cx="128" cy="128" r="122" fill="#EDF8F4"/><circle cx="128" cy="128" r="118" fill="none" stroke="#FFFFFF" stroke-width="5" opacity="0.9"/><path d="M42 250c7-49 37-75 86-75s79 26 86 75" fill="#475569"/><rect x="111" y="157" width="34" height="35" rx="14" fill="#F2C6A0"/><path d="M72 102c0-51 24-75 58-75 37 0 59 28 59 80l-12 82h-28l-4-58H93l-4 58H63z" fill="#8A5A3B"/><ellipse cx="86.5" cy="127.0" rx="10" ry="16" fill="#F2C6A0"/><ellipse cx="169.5" cy="127.0" rx="10" ry="16" fill="#F2C6A0"/><rect x="84.5" y="66.0" width="87" height="104" rx="43.5" fill="#F2C6A0"/><path d="M83 79c20-33 48-43 76-28 9 5 17 12 23 22-20-6-39-7-57 1-15 6-27 12-42 5z" fill="#8A5A3B"/><path d="M92 98 Q102 90 112 92" fill="none" stroke="#8A5A3B" stroke-width="5" stroke-linecap="round"/><path d="M144 92 Q154 90 164 98" fill="none" stroke="#8A5A3B" stroke-width="5" stroke-linecap="round"/><circle cx="102" cy="110" r="4" fill="#1E293B"/><circle cx="154" cy="110" r="4" fill="#1E293B"/><circle cx="100.6" cy="108.5" r="1.2" fill="#FFFFFF"/><circle cx="152.6" cy="108.5" r="1.2" fill="#FFFFFF"/><path d="M128 116q-2 13 3 16" fill="none" stroke="#A86F58" stroke-width="3" stroke-linecap="round" opacity="0.75"/><path d="M111 149 Q128 161 145 149" fill="none" stroke="#A64B55" stroke-width="4" stroke-linecap="round"/><ellipse cx="96" cy="134" rx="10" ry="5" fill="#F08A8A" opacity="0.18"/><ellipse cx="160" cy="134" rx="10" ry="5" fill="#F08A8A" opacity="0.18"/><circle cx="128" cy="128" r="122" fill="none" stroke="#EF476F" stroke-width="8"/></svg>