<svg xmlns="http://www.w3.org/2000/svg" width="256" height="256" viewBox="0 0 256 256" role="img" aria-label="female avatar 9"><circle cx="128" cy="128" r="122" fill="#FFF0F5"/><circle cx="128" cy="128" r="118" fill="none" stroke="#FFFFFF" stroke-width="5" opacity="0.9"/><path d="M42 250c7-49 37-75 86-75s79 26 86 75" fill="#0F766E"/><rect x="111" y="157" width="34" height="35" rx="14" fill="#F7D7C4"/><path d="M72 111c-1-54 22-82 58-82 39 0 61 32 58 84l-3 62c-15 9-35 14-55 14-23 0-42-5-58-15z" fill="#191919"/><path d="M90 51c17-16 47-23 72-7-21 2-43 14-55 31z" fill="#FFFFFF" opacity="0.1"/><ellipse cx="81.0" cy="127.0" rx="10" ry="16" fill="#F7D7C4"/><ellipse cx="175.0" cy="127.0" rx="10" ry="16" fill="#F7D7C4"/><rect x="79.0" y="66.0" width="98" height="102" rx="49.0" fill="#F7D7C4"/><path d="M79 84c17-38 46-51 75-36 11 6 20 14 27 25-31-11-49-4-69 16z" fill="#191919"/><path d="M89 98 Q99 91 109 94" fill="none" stroke="#191919" stroke-width="5" stroke-linecap="round"/><path d="M147 94 Q157 91 167 98" fill="none" stroke="#191919" stroke-width="5" stroke-linecap="round"/><circle cx="99" cy="111" r="4" fill="#1E293B"/><circle cx="157" cy="111" r="4" fill="#1E293B"/><circle cx="97.6" cy="109.5" r="1.2" fill="#FFFFFF"/><circle cx="155.6" cy="109.5" r="1.2" fill="#FFFFFF"/><path d="M128 117q-2 14 3 17" fill="none" stroke="#A86F58" stroke-width="3" stroke-linecap="round" opacity="0.75"/><path d="M111 150 Q128 160 145 150" fill="none" stroke="#A64B55" stroke-width="4" stroke-linecap="round"/><ellipse cx="96" cy="135" rx="10" ry="5" fill="#F08A8A" opacity="0.18"/><ellipse cx="160" cy="135" rx="10" ry="5" fill="#F08A8A" opacity="0.18"/><circle cx="128" cy="128" r="122" fill="none" stroke="#EF476F" stroke-width="8"/></svg>