<svg xmlns="http://www.w3.org/2000/svg" width="256" height="256" viewBox="0 0 256 256" role="img" aria-label="female avatar 26"><circle cx="128" cy="128" r="122" fill="#FFF4EC"/><circle cx="128" cy="128" r="118" fill="none" stroke="#FFFFFF" stroke-width="5" opacity="0.9"/><path d="M42 250c7-49 37-75 86-75s79 26 86 75" fill="#2563EB"/><rect x="111" y="157" width="34" height="35" rx="14" fill="#F2C6A0"/><path d="M72 102c0-51 24-75 58-75 37 0 59 28 59 80l-12 82h-28l-4-58H93l-4 58H63z" fill="#D8B36A"/><ellipse cx="86.5" cy="127.0" rx="10" ry="16" fill="#F2C6A0"/><ellipse cx="169.5" cy="127.0" rx="10" ry="16" fill="#F2C6A0"/><rect x="84.5" y="66.0" width="87" height="107" rx="43.5" fill="#F2C6A0"/><path d="M82 80c17-33 42-45 70-35 11 4 22 13 31 27-28-10-52-5-72 13z" fill="#D8B36A"/><path d="M128 46c-2 16-8 29-21 40" fill="none" stroke="#FFFFFF" stroke-width="3" opacity="0.15"/><path d="M86 102 Q96 95 106 98" fill="none" stroke="#D8B36A" stroke-width="5" stroke-linecap="round"/><path d="M150 98 Q160 95 170 102" fill="none" stroke="#D8B36A" stroke-width="5" stroke-linecap="round"/><circle cx="96" cy="115" r="4" fill="#3F2D20"/><circle cx="160" cy="115" r="4" fill="#3F2D20"/><circle cx="94.6" cy="113.5" r="1.2" fill="#FFFFFF"/><circle cx="158.6" cy="113.5" r="1.2" fill="#FFFFFF"/><path d="M128 121q2 10 3 13" fill="none" stroke="#A86F58" stroke-width="3" stroke-linecap="round" opacity="0.75"/><path d="M112 161 Q128 153 144 161" fill="none" stroke="#A64B55" stroke-width="4" stroke-linecap="round"/><ellipse cx="96" cy="139" rx="10" ry="5" fill="#F08A8A" opacity="0.18"/><ellipse cx="160" cy="139" rx="10" ry="5" fill="#F08A8A" opacity="0.18"/><circle cx="128" cy="128" r="122" fill="none" stroke="#EF476F" stroke-width="8"/></svg>