<svg xmlns="http://www.w3.org/2000/svg" width="256" height="256" viewBox="0 0 256 256" role="img" aria-label="female avatar 34"><circle cx="128" cy="128" r="122" fill="#F5F0FF"/><circle cx="128" cy="128" r="118" fill="none" stroke="#FFFFFF" stroke-width="5" opacity="0.9"/><path d="M42 250c7-49 37-75 86-75s79 26 86 75" fill="#7C3AED"/><rect x="111" y="157" width="34" height="35" rx="14" fill="#F2C6A0"/><path d="M72 111c-1-54 22-82 58-82 39 0 61 32 58 84l-3 62c-15 9-35 14-55 14-23 0-42-5-58-15z" fill="#8A5A3B"/><path d="M90 51c17-16 47-23 72-7-21 2-43 14-55 31z" fill="#FFFFFF" opacity="0.1"/><ellipse cx="81.5" cy="126.0" rx="10" ry="16" fill="#F2C6A0"/><ellipse cx="174.5" cy="126.0" rx="10" ry="16" fill="#F2C6A0"/><rect x="79.5" y="65.0" width="97" height="103" rx="48.5" fill="#F2C6A0"/><path d="M82 80c17-33 42-45 70-35 11 4 22 13 31 27-28-10-52-5-72 13z" fill="#8A5A3B"/><path d="M128 46c-2 16-8 29-21 40" fill="none" stroke="#FFFFFF" stroke-width="3" opacity="0.15"/><path d="M89 97 Q99 95 109 103" fill="none" stroke="#8A5A3B" stroke-width="5" stroke-linecap="round"/><path d="M147 103 Q157 95 167 97" fill="none" stroke="#8A5A3B" stroke-width="5" stroke-linecap="round"/><circle cx="99" cy="115" r="5" fill="#1E293B"/><circle cx="157" cy="115" r="5" fill="#1E293B"/><circle cx="97.6" cy="113.5" r="1.2" fill="#FFFFFF"/><circle cx="155.6" cy="113.5" r="1.2" fill="#FFFFFF"/><path d="M128 121q2 9 3 12" fill="none" stroke="#A86F58" stroke-width="3" stroke-linecap="round" opacity="0.75"/><path d="M111 154 Q128 166 145 154" fill="none" stroke="#A64B55" stroke-width="4" stroke-linecap="round"/><circle cx="80" cy="132" r="4" fill="#F4C95D"/><circle cx="176" cy="132" r="4" fill="#F4C95D"/><ellipse cx="96" cy="139" rx="10" ry="5" fill="#F08A8A" opacity="0.18"/><ellipse cx="160" cy="139" rx="10" ry="5" fill="#F08A8A" opacity="0.18"/><circle cx="128" cy="128" r="122" fill="none" stroke="#EF476F" stroke-width="8"/></svg>