<svg xmlns="http://www.w3.org/2000/svg" width="256" height="256" viewBox="0 0 256 256" role="img" aria-label="female avatar 37"><circle cx="128" cy="128" r="122" fill="#FFF0F5"/><circle cx="128" cy="128" r="118" fill="none" stroke="#FFFFFF" stroke-width="5" opacity="0.9"/><path d="M42 250c7-49 37-75 86-75s79 26 86 75" fill="#5A67D8"/><rect x="111" y="157" width="34" height="35" rx="14" fill="#D99A6C"/><circle cx="174" cy="57" r="27" fill="#4A3025"/><path d="M75 103c-1-49 21-74 56-74 39 0 59 31 57 83l-10 64c-14 9-31 13-51 13-21 0-39-5-54-15z" fill="#4A3025"/><ellipse cx="84.5" cy="128.0" rx="10" ry="16" fill="#D99A6C"/><ellipse cx="171.5" cy="128.0" rx="10" ry="16" fill="#D99A6C"/><rect x="82.5" y="67.0" width="91" height="110" rx="45.5" fill="#D99A6C"/><path d="M79 84c17-38 46-51 75-36 11 6 20 14 27 25-31-11-49-4-69 16z" fill="#4A3025"/><path d="M89 94 Q99 91 109 98" fill="none" stroke="#4A3025" stroke-width="5" stroke-linecap="round"/><path d="M147 98 Q157 91 167 94" fill="none" stroke="#4A3025" stroke-width="5" stroke-linecap="round"/><circle cx="99" cy="111" r="5" fill="#2F3B2F"/><circle cx="157" cy="111" r="5" fill="#2F3B2F"/><circle cx="97.6" cy="109.5" r="1.2" fill="#FFFFFF"/><circle cx="155.6" cy="109.5" r="1.2" fill="#FFFFFF"/><path d="M128 117q-2 10 3 13" fill="none" stroke="#A86F58" stroke-width="3" stroke-linecap="round" opacity="0.75"/><path d="M115 153h26" fill="none" stroke="#A64B55" stroke-width="4" stroke-linecap="round"/><ellipse cx="96" cy="135" rx="10" ry="5" fill="#F08A8A" opacity="0.18"/><ellipse cx="160" cy="135" rx="10" ry="5" fill="#F08A8A" opacity="0.18"/><circle cx="128" cy="128" r="122" fill="none" stroke="#EF476F" stroke-width="8"/></svg>