<svg xmlns="http://www.w3.org/2000/svg" width="256" height="256" viewBox="0 0 256 256" role="img" aria-label="female avatar 46"><circle cx="128" cy="128" r="122" fill="#EDF8F4"/><circle cx="128" cy="128" r="118" fill="none" stroke="#FFFFFF" stroke-width="5" opacity="0.9"/><path d="M42 250c7-49 37-75 86-75s79 26 86 75" fill="#DB2777"/><rect x="111" y="157" width="34" height="35" rx="14" fill="#F2C6A0"/><path d="M72 102c0-51 24-75 58-75 37 0 59 28 59 80l-12 82h-28l-4-58H93l-4 58H63z" fill="#B57A4B"/><ellipse cx="84.0" cy="126.0" rx="10" ry="16" fill="#F2C6A0"/><ellipse cx="172.0" cy="126.0" rx="10" ry="16" fill="#F2C6A0"/><rect x="82.0" y="65.0" width="92" height="109" rx="46.0" fill="#F2C6A0"/><path d="M82 80c17-33 42-45 70-35 11 4 22 13 31 27-28-10-52-5-72 13z" fill="#B57A4B"/><path d="M128 46c-2 16-8 29-21 40" fill="none" stroke="#FFFFFF" stroke-width="3" opacity="0.15"/><path d="M88 99 Q98 95 108 101" fill="none" stroke="#B57A4B" stroke-width="5" stroke-linecap="round"/><path d="M148 101 Q158 95 168 99" fill="none" stroke="#B57A4B" stroke-width="5" stroke-linecap="round"/><circle cx="98" cy="115" r="4.5" fill="#4A3428"/><circle cx="158" cy="115" r="4.5" fill="#4A3428"/><circle cx="96.6" cy="113.5" r="1.2" fill="#FFFFFF"/><circle cx="156.6" cy="113.5" r="1.2" fill="#FFFFFF"/><path d="M128 121q2 12 3 15" fill="none" stroke="#A86F58" stroke-width="3" stroke-linecap="round" opacity="0.75"/><path d="M115 157h26" fill="none" stroke="#A64B55" stroke-width="4" stroke-linecap="round"/><ellipse cx="96" cy="139" rx="10" ry="5" fill="#F08A8A" opacity="0.18"/><ellipse cx="160" cy="139" rx="10" ry="5" fill="#F08A8A" opacity="0.18"/><circle cx="128" cy="128" r="122" fill="none" stroke="#EF476F" stroke-width="8"/></svg>