<svg xmlns="http://www.w3.org/2000/svg" width="256" height="256" viewBox="0 0 256 256" role="img" aria-label="male avatar 34"><circle cx="128" cy="128" r="122" fill="#FFF0F5"/><circle cx="128" cy="128" r="118" fill="none" stroke="#FFFFFF" stroke-width="5" opacity="0.9"/><path d="M42 250c7-49 37-75 86-75s79 26 86 75" fill="#DB2777"/><rect x="111" y="157" width="34" height="35" rx="14" fill="#E7B98A"/><path d="M81 88c7-38 27-57 53-57 30 0 49 19 54 54-20-8-41-10-62-6-18 3-31 5-45 9z" fill="#2D211B"/><ellipse cx="87.0" cy="128.0" rx="10" ry="16" fill="#E7B98A"/><ellipse cx="169.0" cy="128.0" rx="10" ry="16" fill="#E7B98A"/><rect x="85.0" y="67.0" width="86" height="112" rx="43.0" fill="#E7B98A"/><path d="M82 80c14-26 36-38 61-34 17 3 31 13 41 29-30-11-59-8-102 5z" fill="#2D211B"/><path d="M92 102 Q102 96 112 100" fill="none" stroke="#2D211B" stroke-width="5" stroke-linecap="round"/><path d="M144 100 Q154 96 164 102" fill="none" stroke="#2D211B" stroke-width="5" stroke-linecap="round"/><circle cx="102" cy="116" r="4" fill="#1E293B"/><circle cx="154" cy="116" r="4" fill="#1E293B"/><circle cx="100.6" cy="114.5" r="1.2" fill="#FFFFFF"/><circle cx="152.6" cy="114.5" r="1.2" fill="#FFFFFF"/><circle cx="102" cy="116" r="15" fill="none" stroke="#334155" stroke-width="3"/><circle cx="154" cy="116" r="15" fill="none" stroke="#334155" stroke-width="3"/><path d="M117 116h22" stroke="#334155" stroke-width="3"/><path d="M128 122q2 14 3 17" fill="none" stroke="#A86F58" stroke-width="3" stroke-linecap="round" opacity="0.75"/><path d="M111 155 Q128 167 145 155" fill="none" stroke="#A64B55" stroke-width="4" stroke-linecap="round"/><path d="M91 146.0c7 29 23 43 37 43s31-14 38-43c-6 39-19 58-38 58s-32-19-37-58z" fill="#2D211B" opacity="0.28"/><path d="M113 147q15-7 30 0" fill="none" stroke="#2D211B" stroke-width="5" stroke-linecap="round" opacity="0.5"/><ellipse cx="96" cy="140" rx="10" ry="5" fill="#F08A8A" opacity="0.18"/><ellipse cx="160" cy="140" rx="10" ry="5" fill="#F08A8A" opacity="0.18"/><circle cx="128" cy="128" r="122" fill="none" stroke="#3B82F6" stroke-width="8"/></svg>