<svg xmlns="http://www.w3.org/2000/svg" width="256" height="256" viewBox="0 0 256 256" role="img" aria-label="male avatar 15"><circle cx="128" cy="128" r="122" fill="#F5F0FF"/><circle cx="128" cy="128" r="118" fill="none" stroke="#FFFFFF" stroke-width="5" opacity="0.9"/><path d="M42 250c7-49 37-75 86-75s79 26 86 75" fill="#475569"/><rect x="111" y="157" width="34" height="35" rx="14" fill="#E7B98A"/><path d="M79 92c4-39 25-61 53-61 31 0 52 22 56 59-18-10-39-15-62-14-17 0-32 6-47 16z" fill="#4A3025"/><ellipse cx="86.5" cy="130.0" rx="10" ry="16" fill="#E7B98A"/><ellipse cx="169.5" cy="130.0" rx="10" ry="16" fill="#E7B98A"/><rect x="84.5" y="69.0" width="87" height="107" rx="43.5" fill="#E7B98A"/><path d="M82 80c14-26 36-38 61-34 17 3 31 13 41 29-30-11-59-8-102 5z" fill="#4A3025"/><path d="M88 103 Q98 99 108 105" fill="none" stroke="#4A3025" stroke-width="5" stroke-linecap="round"/><path d="M148 105 Q158 99 168 103" fill="none" stroke="#4A3025" stroke-width="5" stroke-linecap="round"/><circle cx="98" cy="119" r="4.5" fill="#1E293B"/><circle cx="158" cy="119" r="4.5" fill="#1E293B"/><circle cx="96.6" cy="117.5" r="1.2" fill="#FFFFFF"/><circle cx="156.6" cy="117.5" r="1.2" fill="#FFFFFF"/><circle cx="98" cy="119" r="15" fill="none" stroke="#334155" stroke-width="3"/><circle cx="158" cy="119" r="15" fill="none" stroke="#334155" stroke-width="3"/><path d="M113 119h30" stroke="#334155" stroke-width="3"/><path d="M128 125q-2 13 3 16" fill="none" stroke="#A86F58" stroke-width="3" stroke-linecap="round" opacity="0.75"/><path d="M115 161h26" fill="none" stroke="#A64B55" stroke-width="4" stroke-linecap="round"/><ellipse cx="96" cy="143" rx="10" ry="5" fill="#F08A8A" opacity="0.18"/><ellipse cx="160" cy="143" rx="10" ry="5" fill="#F08A8A" opacity="0.18"/><circle cx="128" cy="128" r="122" fill="none" stroke="#3B82F6" stroke-width="8"/></svg>