<svg xmlns="http://www.w3.org/2000/svg" width="256" height="256" viewBox="0 0 256 256" role="img" aria-label="male avatar 33"><circle cx="128" cy="128" r="122" fill="#F2F7FF"/><circle cx="128" cy="128" r="118" fill="none" stroke="#FFFFFF" stroke-width="5" opacity="0.9"/><path d="M42 250c7-49 37-75 86-75s79 26 86 75" fill="#2F6BFF"/><rect x="111" y="157" width="34" height="35" rx="14" fill="#E7B98A"/><path d="M77 93c4-42 27-64 57-64 34 0 54 25 54 65-13-13-32-19-57-18-23 1-40 7-54 17z" fill="#8A5A3B"/><path d="M91 51c27-22 57-19 79 4-26-10-48-8-79-4z" fill="#FFFFFF" opacity="0.12"/><ellipse cx="81.5" cy="128.0" rx="10" ry="16" fill="#E7B98A"/><ellipse cx="174.5" cy="128.0" rx="10" ry="16" fill="#E7B98A"/><rect x="79.5" y="67.0" width="97" height="114" rx="48.5" fill="#E7B98A"/><path d="M82 80c14-26 36-38 61-34 17 3 31 13 41 29-30-11-59-8-102 5z" fill="#8A5A3B"/><path d="M89 99 Q99 93 109 97" fill="none" stroke="#8A5A3B" stroke-width="5" stroke-linecap="round"/><path d="M147 97 Q157 93 167 99" fill="none" stroke="#8A5A3B" stroke-width="5" stroke-linecap="round"/><circle cx="99" cy="113" r="4.5" fill="#4A3428"/><circle cx="157" cy="113" r="4.5" fill="#4A3428"/><circle cx="97.6" cy="111.5" r="1.2" fill="#FFFFFF"/><circle cx="155.6" cy="111.5" r="1.2" fill="#FFFFFF"/><path d="M128 119q-2 14 3 17" fill="none" stroke="#A86F58" stroke-width="3" stroke-linecap="round" opacity="0.75"/><path d="M111 152 Q128 162 145 152" fill="none" stroke="#A64B55" stroke-width="4" stroke-linecap="round"/><ellipse cx="96" cy="137" rx="10" ry="5" fill="#F08A8A" opacity="0.18"/><ellipse cx="160" cy="137" rx="10" ry="5" fill="#F08A8A" opacity="0.18"/><circle cx="128" cy="128" r="122" fill="none" stroke="#3B82F6" stroke-width="8"/></svg>