<svg xmlns="http://www.w3.org/2000/svg" width="256" height="256" viewBox="0 0 256 256" role="img" aria-label="male avatar 42"><circle cx="128" cy="128" r="122" fill="#F2FBFA"/><circle cx="128" cy="128" r="118" fill="none" stroke="#FFFFFF" stroke-width="5" opacity="0.9"/><path d="M42 250c7-49 37-75 86-75s79 26 86 75" fill="#7C3AED"/><rect x="111" y="157" width="34" height="35" rx="14" fill="#9F6548"/><path d="M78 94c2-43 24-65 55-65 33 0 54 23 55 64-22-12-41-14-57-11-19 4-34 7-53 12z" fill="#6B4634"/><path d="M97 43l4-18 12 12 9-20 11 20 15-13 1 22z" fill="#6B4634"/><ellipse cx="85.0" cy="129.0" rx="10" ry="16" fill="#9F6548"/><ellipse cx="171.0" cy="129.0" rx="10" ry="16" fill="#9F6548"/><rect x="83.0" y="68.0" width="90" height="109" rx="45.0" fill="#9F6548"/><path d="M82 80c14-26 36-38 61-34 17 3 31 13 41 29-30-11-59-8-102 5z" fill="#6B4634"/><path d="M87 101 Q97 97 107 103" fill="none" stroke="#6B4634" stroke-width="5" stroke-linecap="round"/><path d="M149 103 Q159 97 169 101" fill="none" stroke="#6B4634" stroke-width="5" stroke-linecap="round"/><circle cx="97" cy="117" r="4" fill="#2F3B2F"/><circle cx="159" cy="117" r="4" fill="#2F3B2F"/><circle cx="95.6" cy="115.5" r="1.2" fill="#FFFFFF"/><circle cx="157.6" cy="115.5" r="1.2" fill="#FFFFFF"/><path d="M128 123q2 14 3 17" fill="none" stroke="#A86F58" stroke-width="3" stroke-linecap="round" opacity="0.75"/><path d="M111 156 Q128 168 145 156" fill="none" stroke="#A64B55" stroke-width="4" stroke-linecap="round"/><path d="M91 147.0c7 29 23 43 37 43s31-14 38-43c-6 39-19 58-38 58s-32-19-37-58z" fill="#6B4634" opacity="0.28"/><path d="M113 148q15-7 30 0" fill="none" stroke="#6B4634" stroke-width="5" stroke-linecap="round" opacity="0.5"/><ellipse cx="96" cy="141" rx="10" ry="5" fill="#F08A8A" opacity="0.18"/><ellipse cx="160" cy="141" rx="10" ry="5" fill="#F08A8A" opacity="0.18"/><circle cx="128" cy="128" r="122" fill="none" stroke="#3B82F6" stroke-width="8"/></svg>