<svg xmlns="http://www.w3.org/2000/svg" width="256" height="256" viewBox="0 0 256 256" role="img" aria-label="male avatar 45"><circle cx="128" cy="128" r="122" fill="#FFF4EC"/><circle cx="128" cy="128" r="118" fill="none" stroke="#FFFFFF" stroke-width="5" opacity="0.9"/><path d="M42 250c7-49 37-75 86-75s79 26 86 75" fill="#DB2777"/><rect x="111" y="157" width="34" height="35" rx="14" fill="#E7B98A"/><path d="M79 92c4-39 25-61 53-61 31 0 52 22 56 59-18-10-39-15-62-14-17 0-32 6-47 16z" fill="#6B4634"/><ellipse cx="86.0" cy="124.0" rx="10" ry="16" fill="#E7B98A"/><ellipse cx="170.0" cy="124.0" rx="10" ry="16" fill="#E7B98A"/><rect x="84.0" y="63.0" width="88" height="114" rx="44.0" fill="#E7B98A"/><path d="M82 80c14-26 36-38 61-34 17 3 31 13 41 29-30-11-59-8-102 5z" fill="#6B4634"/><path d="M89 93 Q99 87 109 91" fill="none" stroke="#6B4634" stroke-width="5" stroke-linecap="round"/><path d="M147 91 Q157 87 167 93" fill="none" stroke="#6B4634" stroke-width="5" stroke-linecap="round"/><circle cx="99" cy="107" r="5" fill="#1E293B"/><circle cx="157" cy="107" r="5" fill="#1E293B"/><circle cx="97.6" cy="105.5" r="1.2" fill="#FFFFFF"/><circle cx="155.6" cy="105.5" r="1.2" fill="#FFFFFF"/><path d="M128 113q-2 13 3 16" fill="none" stroke="#A86F58" stroke-width="3" stroke-linecap="round" opacity="0.75"/><path d="M111 146 Q128 158 145 146" fill="none" stroke="#A64B55" stroke-width="4" stroke-linecap="round"/><ellipse cx="96" cy="131" rx="10" ry="5" fill="#F08A8A" opacity="0.18"/><ellipse cx="160" cy="131" rx="10" ry="5" fill="#F08A8A" opacity="0.18"/><circle cx="128" cy="128" r="122" fill="none" stroke="#3B82F6" stroke-width="8"/></svg>